<svg width="51" height="50" viewBox="0 0 51 50" fill="none" xmlns="http://www.w3.org/2000/svg">
<path d="M29.9668 12.874H34.3828V36H29.9668V26.9854H19.8066V36H15.374V12.874H19.8066V22.5693H29.9668V12.874Z" fill="white"/>
<path fill-rule="evenodd" clip-rule="evenodd" d="M25.1101 44.0562C19.2019 41.2328 8.52154 38.7729 5.21944 30.1874C7.37823 27.0076 9.24587 23.6568 9.24587 19.3531C9.24587 15.5154 6.98056 11.9518 5.21944 8.96382L9.24587 5.75189C13.6487 7.72557 20.3665 8.96382 25.0533 8.96382C29.7402 8.96382 36.5077 7.72557 40.8821 5.75189L44.8446 8.96382C43.0835 11.9518 40.8821 15.5154 40.8821 19.3531C40.8821 23.6294 42.7142 27.0076 44.8446 30.1874C41.5425 38.1763 31.0184 41.2053 25.1101 44.0562ZM25.0533 50C18.0941 43.0647 5.14133 44.9836 0 29.4134C2.86892 27.2478 4.77207 23.5471 4.77207 19.3531C4.77207 15.3235 3.295 12.6179 0.624913 10.4249V6.90789L7.81141 0H11.2066C14.2176 2.71382 19.4007 4.38597 25.1101 4.38597C30.8196 4.38597 35.9173 2.71382 38.9282 6.85544e-06L42.4089 0L49.5954 6.90789V10.4249C46.8969 12.6179 45.4198 15.3235 45.4198 19.3531C45.4198 23.5471 47.323 27.2478 50.1919 29.4134C45.0222 44.9836 32.041 43.0647 25.0533 50Z" fill="white"/>
</svg>
